<?xml version="1.0" encoding="utf-8"?>
<!-- Generator: Adobe Illustrator 24.0.1, SVG Export Plug-In . SVG Version: 6.00 Build 0)  -->
<svg version="1.1" id="Capa_1" xmlns="http://www.w3.org/2000/svg" xmlns:xlink="http://www.w3.org/1999/xlink" x="0px" y="0px"
	 viewBox="0 0 512 512" style="enable-background:new 0 0 512 512;" xml:space="preserve">
<style type="text/css">
	.st0{fill:#F4D242;}
	.st1{fill:#59595B;}
	.st2{fill:#808183;}
	.st3{fill:#FFFFFF;}
</style>
<g>
	<g>
		<g>
			<path class="st0" d="M397.8,240.2c0-79.8-64.7-144.5-144.5-144.5c-79.8,0-144.8,65.2-144.5,145c0.1,39.6,16.2,75.5,42.2,101.5
				c20.2,20.3,35,45.3,42.5,72.9l11.7,43.1h94.7l11-40.8c7.6-28.2,22.9-53.7,43.8-74.2C381.2,317,397.8,280.5,397.8,240.2z"/>
			<path class="st1" d="M275.1,508.7H229c-13.1,0-24.3-9.7-25-21.9l-3.9-47.3l104.6-0.7l-4.5,48C299.4,499,288.2,508.7,275.1,508.7z
				"/>
		</g>
		<path class="st2" d="M295.2,459.4c-29.2,1.2-58.5-0.2-87.8,1c-2.6,0.1-2.4,3.9,0.1,4c29.2,1,58.6-0.8,87.8,0.1
			C298.7,464.6,298.6,459.3,295.2,459.4z"/>
		<path class="st2" d="M295.2,472.1c-29.2,1.2-58.5-0.2-87.8,1c-2.6,0.1-2.4,3.9,0.1,4c29.2,1,58.6-0.8,87.8,0.1
			C298.7,477.3,298.6,472,295.2,472.1z"/>
	</g>
	<g>
		<path class="st0" d="M265,22.2c0,9.3-5,42.8-11.1,42.8c-6.1,0-11.1-33.5-11.1-42.8s5-16.9,11.1-16.9C260.1,5.3,265,12.9,265,22.2z
			"/>
		<path class="st0" d="M402.9,73.6c-7.1,6.1-29.2,31.6-25.2,36.3c4,4.6,32.6-13.4,39.7-19.5c7.1-6.1,9.6-14.7,5.6-19.4
			C418.9,66.4,409.9,67.5,402.9,73.6z"/>
		<path class="st0" d="M456.6,223c-9.2,1.2-43.1,0.5-43.8-5.6c-0.8-6.1,31.8-15.2,41.1-16.4c9.2-1.2,17.4,2.8,18.1,8.8
			C472.7,216,465.8,221.8,456.6,223z"/>
		<path class="st0" d="M117.8,62.5c7.3,5.7,30.6,30.3,26.9,35.1c-3.8,4.8-33.2-11.9-40.5-17.7c-7.3-5.7-10.2-14.3-6.5-19.1
			C101.4,56,110.4,56.7,117.8,62.5z"/>
		<path class="st0" d="M47.8,199.1c9.2,1.2,43.1,0.5,43.8-5.6c0.8-6.1-31.8-15.2-41.1-16.4c-9.2-1.2-17.4,2.8-18.1,8.8
			C31.7,192,38.5,197.9,47.8,199.1z"/>
	</g>
	<g>
		<path class="st3" d="M315.6,313.8c-4.6-3.4-8.3-7.8-10.9-12.8c5.2-6.5,7.6-15.2,8.5-23.3c0.6-4.9,0.8-9.9,0.8-14.9
			c0.1-4.8-0.6-8.9-4.6-11.9c-3.6-2.7-8.5-0.3-11.2,2.3c-3.2,3-4.8,7.9-6,11.9c-2.5,8.2-2.5,17-0.9,25.4c0.5,2.9,1.4,5.8,2.4,8.6
			c-2.1,1.6-4.4,2.9-6.9,3.7c-7.9,2.5-13.9-2-17.5-8.8c-0.6-1.1-1.2-2.3-1.7-3.5c0.6-1.7,1.2-3.3,1.8-5c2.7-8,4.2-16.4,4.8-24.8
			c0.6-7,0.8-15.3-5.9-19.4c-2.2-1.3-4.6-0.3-5.9,1.6c-9.8,13.6-9.2,31.6-3.9,47c-1.7,4.1-3.7,8.1-5.9,11.9
			c-2.5,4.2-7.1,10.7-12.8,9.9c-5.3-0.8-9.5-7.4-12.1-11.5c-1.9-3-3.4-6.2-4.6-9.6c0.7-1.8,1.3-3.6,1.9-5.4
			c2.3-7.1,3.5-14.5,4.1-21.9c0.5-6.2,0.7-14.9-6.1-17.9c-2-0.9-4.9-0.8-5.9,1.6c-6,13.2-7.1,27.8-3.3,41.8c0.1,0.5,0.3,0.9,0.4,1.4
			c-4.1,10.5-10.4,20.2-18,28.4c-3.4,3.7,2,9.2,5.5,5.5c6.8-6.9,12.4-14.8,16.8-23.3c1.3,2.5,2.8,4.8,4.4,7
			c4.4,6.1,10,11.9,17.9,12.3c7.4,0.4,13.5-5.9,17.5-11.3c1.9-2.6,3.6-5.5,5.1-8.4c3.6,5.8,8.9,10.4,16.1,11.4
			c6.6,0.9,13-1.1,18.4-4.7c3.2,5.4,7.3,10.2,12,14.2C315.1,326,321.4,317.9,315.6,313.8z M265.9,253.5c0.3,3.5-0.5,7.7-0.7,9.8
			c-0.4,3.8-1,7.6-1.9,11.4C262.4,267.3,263,259.8,265.9,253.5z M299.6,275.3c0.3-3.6,1.2-7.1,2.4-10.5c0.5-1.5,1.2-3,2.1-4.4
			c0.1-0.1,0.4-0.5,0.7-0.8c0,0.2,0.1,0.6,0.2,1c0.5,8.8-0.3,18.2-3,26.6c-0.3,1-0.7,2-1.2,3C299.6,285.3,299.2,280.2,299.6,275.3z"
			/>
		<path class="st3" d="M323.9,292.5c-15.4,46.9-31.5,93.6-48.9,139.8c-2.1,5.5,6.4,8.9,8.5,3.4c17.3-46.3,33.4-93,47.8-140.2
			C332.8,290.6,325.5,287.6,323.9,292.5z"/>
		<path class="st3" d="M184.1,289.5c12.3,47.8,23.7,95.9,33.9,144.1c1.2,5.8,10.2,4.1,9-1.7c-10.3-48.3-21.8-96.3-35.1-143.9
			C190.6,283.1,182.8,284.5,184.1,289.5z"/>
	</g>
</g>
</svg>
