<?xml version="1.0" encoding="utf-8"?>
<!-- Generator: Adobe Illustrator 24.0.1, SVG Export Plug-In . SVG Version: 6.00 Build 0)  -->
<svg version="1.1" id="Capa_1" xmlns="http://www.w3.org/2000/svg" xmlns:xlink="http://www.w3.org/1999/xlink" x="0px" y="0px"
	 viewBox="0 0 512 512" style="enable-background:new 0 0 512 512;" xml:space="preserve">
<style type="text/css">
	.st0{fill:#F7F7F8;}
	.st1{fill:none;stroke:#FFFFFF;stroke-miterlimit:10;}
</style>
<g>
	<path class="st0" d="M206.2,96.9l125.4-0.2c5,0,9-4.6,9-10.4c0-5.7-4.1-10.3-9.1-10.3l-125.4,0.2c-5,0-9,4.7-9,10.3
		C197.2,92.3,201.2,96.9,206.2,96.9z"/>
	<path class="st0" d="M206.2,68l125.4-0.2c5,0,9-4.7,9-10.4c0-5.7-4.1-10.4-9.1-10.4l-13.4,0l-13.6-27.5c0,0-6.5-8.8-9.9-9.8
		c-3.3-1-41.9-5.2-53.9,0.1c0,0-5.8,1.7-10.4,10.5c-3.5,6.7-10.9,20.6-14.2,26.8l-10.1,0c-5,0-9,4.7-9,10.4
		C197.2,63.3,201.2,68,206.2,68z"/>
	<path class="st0" d="M206.2,125.8l125.4-0.2c5,0,9-4.6,9-10.4c0-5.7-4.1-10.4-9-10.3l-125.4,0.2c-5,0-9,4.6-9,10.4
		C197.2,121.2,201.3,125.8,206.2,125.8z"/>
	<g>
		<path class="st1" d="M226.2,307.9c-1.3,2.6-1.5,4.5-0.7,5.8c0.8,1.3,1.6,2,2.4,2c1.9,0,4.4-2.6,5.6-5c1.8-3.6,1.6-8,0.9-11.8
			C230.5,301.7,227.7,304.8,226.2,307.9z"/>
		<path class="st1" d="M280.1,312.9c-0.9,1.9-1.1,5.4-0.2,6.8c0.2,0.3,0.4,0.4,0.9,0.5c0.3,0,1-0.1,1.9-0.5c2.3-1,4.3-3.1,5.5-5.8
			c2.2-5,2.5-9.7,0.8-13.6c-0.3,0.4-0.6,0.8-0.9,1.1C285,305.1,282,308.9,280.1,312.9z"/>
		<path class="st1" d="M320,257.2c-17-36.5-31.8-77.3-45-124.5l-19,0c-12.3,44.3-25.9,82.9-41.5,117.8c12.5,5.8,22.2,16.6,27.6,30.8
			c8.6-3.5,17.4-4.8,26.8-3.9c7.8,0.8,14.5,2.6,19.7,5.6C293.6,277.1,305.6,264.1,320,257.2z"/>
		<path class="st1" d="M348.5,280c0.3,0,0.5,0.1,0.8,0c1.6,0,3.4-0.6,3.8-2c0.7-2.7-0.7-5.2-1.9-6.8c-3.1-3.9-8.8-6.9-13.4-6.9
			c-0.4,0-0.7,0-1.1,0.1c1,2.1,2,4.1,3.1,6.2C341.9,275,344.6,279.4,348.5,280z"/>
		<path class="st1" d="M186.7,276.5L186.7,276.5c0.5,0,1.7-0.5,4.7-5.3l0.2-0.4c1.8-3.6,3.7-7.3,5.5-11.3c-4.1,0.4-7.6,1.9-9.7,4.1
			c-1.8,2-2.6,4.5-2.4,7.7C185.3,274.9,186.3,276.2,186.7,276.5z"/>
		<path class="st1" d="M269.5,497.9c93.3-0.1,168.8-75.9,168.7-169.2c-0.1-68-40.4-126.6-98.4-153.3l-0.1-32.8c0-5.5-4.5-10-10-10
			l-42.4,0.1c13,45.8,27.4,85.3,43.9,120.7c9.5-1.8,18,0.5,24.9,6.7c4.8,4.3,9.5,11.8,8.9,18.8c-0.4,4.3-2.6,7.9-6.6,10.4
			c-2.8,1.8-5.8,2.7-8.9,2.7c-9.4,0-16.8-8.4-20.3-15.7c-1.4-2.7-2.7-5.4-4-8.1c-9.7,4.6-19.6,12.7-27.7,22.5
			c2.3,3.2,3.8,7,4.4,11.2c1,7.2-2.6,17.8-8.1,24.2c-6,6.9-13.6,8.1-20.4,3.1c-3.8-2.7-6-6.2-6.5-10.2c-1.2-9.2,6.8-19,12.6-26.1
			c0.3-0.3,0.5-0.6,0.8-0.9c-1.6-0.7-3.4-1.3-5.3-1.7c-10.2-2.1-19.2-1.8-25.9,0.8c-1.2,0.5-2.5,1-3.7,1.5c0.5,2.5,0.9,5,1.1,7.4
			c1,10.5-1.9,18.1-9.1,24.1c-2.8,2.3-6.4,3.6-10,3.6c-3.5,0-6.5-1.2-8.8-3.6c-4-4.1-5.7-8.8-5.3-13.9c0.9-10.2,10.3-17.9,14.2-20.8
			c1.2-0.8,2.4-1.7,3.6-2.4c-3.1-8.5-9.5-21.1-21.6-25.9c-2.5,5.2-5,10.4-7.5,15.4c-0.2,0.3-0.4,0.7-0.6,1
			c-2.2,3.4-8,10.9-15.1,10.9c-2.6,0-5-1-7.2-2.9c-6.8-6-7.1-16.1-4.3-23.6c3.4-9.2,12.5-14.8,24.3-14.8c1.2,0,2.5,0.1,3.7,0.2
			c15.3-33.8,28.6-71.4,40.8-114.6l-35.4,0.1c-5.5,0-10,4.5-10,10l0,32.8c-57.9,26.9-98,85.5-97.9,153.5
			C100.5,422.5,176.2,498.1,269.5,497.9z"/>
	</g>
</g>
</svg>
